# xmcd
#
# Track frame offsets:
# 150
# 15277
# 30600
# 45647
# 60520
# 73182
# 89420
# 103442
# 118037
# 134367
# 148770
# 160175
# 176517
# 190837
# 205345
# 220320
# 236065
# 254090
# 267275
# 283297
#
# Disc length: 3993 seconds
#
#
# Revision: 0
# Processed by: cddbd v1.5.2PL0 Copyright (c) Steve Scherf et al.
# Submitted via: FreeRIP 2.951 
#
DISCID=390f9714
DTITLE=Various Artist - 青春砍年鑑50
DYEAR=1950
DGENRE=JPop
TTITLE0=tansubatei no 夜 林伊佐緒
TTITLE1=白i花no開ku頃 岡本敦郎
TTITLE2=赤i ranbu no 終列車 春日八郎
TTITLE3=黑百合no歌 '井茂子
TTITLE4=月ga totemo青i kara 菅原都子
TTITLE5=東京 anna 大津美子
TTITLE6=別reno一本杉 春日八郎
TTITLE7=ringo村kara 三橋美智也
TTITLE8=哀愁列車 三橋美智也
TTITLE9=男 no burusu 三船浩
TTITLE10=俺ha待teruze 石原裕次郎
TTITLE11=東京da yo o母san 島倉千代子
TTITLE12=港町十三番地 美空hibari
TTITLE13=chanchiki okesa 三波春夫
TTITLE14=柿no木阪no家 青木光一
TTITLE15=無法松no一生 村田英雄
TTITLE16=南國土佐wo後nishite begi一葉山
TTITLE17=黑i花bira 水原弘
TTITLE18=o別re公眾電話 松山惠子
TTITLE19=潮來笠 橋幸夫
EXTD=
EXTT0=
EXTT1=
EXTT2=
EXTT3=
EXTT4=
EXTT5=
EXTT6=
EXTT7=
EXTT8=
EXTT9=
EXTT10=
EXTT11=
EXTT12=
EXTT13=
EXTT14=
EXTT15=
EXTT16=
EXTT17=
EXTT18=
EXTT19=
PLAYORDER=
